# xmcd
#
# Track frame offsets:
#	150
#	12182
#	23844
#	34919
#	48184
#	59124
#	70657
#	82972
#	94814
#	107200
#	120443
#	131563
#	142768
#	154269
#	164384
#	177499
#	189351
#	200468
#	212265
#	224533
#	237050
#	249855
#
# Disc length: 3512 seconds
#
# Revision: 0
# Processed by: cddbd v1.5.2PL0 Copyright (c) Steve Scherf et al.
# Submitted via: dBpowerAMP V4.0
#
DISCID=280db616
DTITLE=Hank Williams - BD Rock - CD2 1949-1952
DYEAR=1900
DGENRE=Country
TTITLE0=Long gone lonesome blues
TTITLE1=My son calls another man daddy
TTITLE2=Why don't you love me
TTITLE3=A house without love
TTITLE4=Moanin the blues
TTITLE5=Nobody's lonesome for me
TTITLE6=Cold cold heart
TTITLE7=Dear John
TTITLE8=Howlin at the moon
TTITLE9=Hey good looking
TTITLE10=I heard that lonesome whistle
TTITLE11=Crazy heart
TTITLE12=Baby we're really in love
TTITLE13=Honky tonk blues
TTITLE14=Jambalaya on the bayou
TTITLE15=Settin' the woods on fire
TTITLE16=I'll never get out of this world alive
TTITLE17=Kaw liga
TTITLE18=Your cheatin' heart
TTITLE19=I won't be home no more
TTITLE20=Please make up your mind
TTITLE21=Ramblin' man
EXTD=
EXTT0=
EXTT1=
EXTT2=
EXTT3=
EXTT4=
EXTT5=
EXTT6=
EXTT7=
EXTT8=
EXTT9=
EXTT10=
EXTT11=
EXTT12=
EXTT13=
EXTT14=
EXTT15=
EXTT16=
EXTT17=
EXTT18=
EXTT19=
EXTT20=
EXTT21=
PLAYORDER=
